<?xml version="1.0" encoding="utf-8"?>
<svg version="1.1" id="Capa_1" xmlns="http://www.w3.org/2000/svg"
     xmlns:xlink="http://www.w3.org/1999/xlink" x="0px" y="0px"
     viewBox="0 0 54.355 54.355" xml:space="preserve">
  <g transform="scale(0.7) translate(11, 11)">
    <path d="M39.401,21.761l-4.902-3.835H20.374h-1.873h-2.81v1.405h2.81l0.703,5.617c-0.758,0.143-1.184,0.224-1.184,0.224L7.2,27.941
      L3.759,33.15L0,33.076l1.523,3.354h43.561c0,0,9.291-10.109,9.271-14.187C54.346,20.443,47.29,20.799,39.401,21.761z M20.61,24.693
      l-0.703-5.359h0.467h3.748l0.703,4.613C23.175,24.231,21.734,24.486,20.61,24.693z M26.23,23.707l-0.701-4.375h5.176l0.859,3.52
      C29.685,23.138,27.879,23.433,26.23,23.707z M32.963,22.637l-0.851-3.305h1.774l3.801,2.646
      C36.111,22.182,34.521,22.406,32.963,22.637z"/>
  </g>
</svg>
